<?xml version="1.0" ?>
<!DOCTYPE svg  PUBLIC '-//W3C//DTD SVG 1.1//EN'  'http://www.w3.org/Graphics/SVG/1.1/DTD/svg11.dtd'>
<!-- Uploaded to: SVG Repo, www.svgrepo.com, Generator: SVG Repo Mixer Tools -->
<svg fill="#000000" width="800px" height="800px" viewBox="0 0 512 512" enable-background="new 0 0 512 512" id="Stay_x5F_organize" version="1.1" xml:space="preserve" xmlns="http://www.w3.org/2000/svg" xmlns:xlink="http://www.w3.org/1999/xlink">
<g>
<path d="M488.303,229.44l-26.801-5.893c-5.053-1.107-8.932-5.08-10.004-10.143c-4.242-20.045-11.472-38.979-21.233-56.311   c-2.387-4.236-2.236-9.438,0.387-13.533l16.389-25.586c3.336-5.207,2.597-12.033-1.776-16.406l-27.195-27.197   c-4.373-4.373-11.197-5.111-16.404-1.777L378.79,87.241c-4.35,2.785-9.916,2.748-14.256-0.059   c-16.818-10.889-35.375-19.313-55.166-24.771c-4.697-1.295-8.289-5.084-9.332-9.844l-6.469-29.617   c-1.324-6.041-6.676-10.451-12.859-10.451h-38.465c-6.184,0-11.533,4.41-12.855,10.451l-5.863,26.786   c-1.1,5.027-5.037,8.958-10.063,10.051c-19.986,4.352-38.85,11.707-56.109,21.551c-4.248,2.42-9.479,2.301-13.598-0.336   L117.923,64.46c-5.207-3.332-12.035-2.592-16.406,1.779l-27.199,27.2c-4.373,4.371-5.111,11.2-1.777,16.407l15.131,23.629   c2.771,4.326,2.75,9.858-0.016,14.19c-10.576,16.566-18.775,34.793-24.119,54.205c-1.295,4.703-5.082,8.301-9.848,9.348   l-30.766,6.725c-6.041,1.326-10.422,6.676-10.422,12.859v38.463c0,6.184,4.381,11.533,10.422,12.859l28.128,6.156   c5.014,1.1,8.93,5.02,10.038,10.031c4.303,19.453,11.459,37.838,20.979,54.701c2.396,4.244,2.268,9.453-0.361,13.557l-17.297,27.02   c-3.336,5.205-2.595,12.031,1.778,16.404l27.199,27.199c4.373,4.371,11.198,5.111,16.405,1.775l24.54-15.713   c4.336-2.777,9.877-2.746,14.215,0.033c16.268,10.42,34.145,18.545,53.178,23.922c4.668,1.318,8.229,5.09,9.266,9.824l6.9,31.298   c1.324,6.039,6.674,10.168,12.857,10.168h38.465c6.184,0,11.531-4.129,12.857-10.168l6.189-28.145   c1.105-5.041,5.063-8.906,10.107-9.992c19.514-4.197,37.969-11.222,54.908-20.661c4.23-2.359,9.408-2.202,13.488,0.411   l26.771,17.148c5.207,3.336,12.033,2.597,16.404-1.774l27.201-27.199c4.369-4.371,5.109-11.198,1.777-16.405l-15.232-23.78   c-2.789-4.359-2.744-9.938,0.074-14.279c10.732-16.521,19.082-34.732,24.574-54.143c1.322-4.662,5.094-8.215,9.822-9.248   l30.147-6.645c6.041-1.324,10.197-6.674,10.197-12.857v-38.465C498.5,236.114,494.344,230.765,488.303,229.44z M254.407,407.585   c-82.277,0-148.979-66.701-148.979-148.979s66.701-148.979,148.979-148.979s148.977,66.701,148.977,148.979   S336.685,407.585,254.407,407.585z"/>
<path d="M196.716,237.659c12.982,0,23.504-10.525,23.504-23.504c0-12.982-10.521-23.506-23.504-23.506   c-12.98,0-23.504,10.523-23.504,23.506C173.212,227.134,183.735,237.659,196.716,237.659z"/>
<path d="M316.192,237.659c12.982,0,23.504-10.525,23.504-23.504c0-12.982-10.521-23.506-23.504-23.506   c-12.98,0-23.504,10.523-23.504,23.506C292.688,227.134,303.212,237.659,316.192,237.659z"/>
<circle cx="256.364" cy="229.3" r="23.506"/>
<path d="M255.5,262.124c-25.129,0-45,20.371-45,45.498v9.342c0,1.818,1.614,3.536,3.437,3.536h84.406   c1.818,0,2.157-1.718,2.157-3.536v-9.342C300.5,282.495,280.629,262.124,255.5,262.124z"/>
<path d="M226.599,258.633c-8.012-7.124-19.295-11.559-30.852-11.559c-25.133,0-46.247,20.288-46.247,45.397v9.336   c0,1.824,2.968,3.692,4.792,3.692h45.162C200.452,284.5,211.034,268.627,226.599,258.633z"/>
<path d="M315.993,246.978c-11.609,0-22.168,4.573-30.191,11.722c15.502,9.988,26.025,25.801,27.023,46.801h45.338   c1.822,0,3.337-1.868,3.337-3.692v-9.336c0-12.555-5.102-23.941-13.334-32.152C339.93,252.062,328.569,246.978,315.993,246.978z"/>
</g>
</svg>