<?xml version="1.0" encoding="iso-8859-1"?>
<!-- Uploaded to: SVG Repo, www.svgrepo.com, Generator: SVG Repo Mixer Tools -->
<svg fill="#000000" height="800px" width="800px" version="1.1" id="Layer_1" xmlns="http://www.w3.org/2000/svg" xmlns:xlink="http://www.w3.org/1999/xlink" 
	 viewBox="0 0 512 512" xml:space="preserve">
<g>
	<g>
		<path d="M501.108,324.808c-18.078-22.785-51.248-26.095-73.455-7.46l-79.115,66.383h-37.109
			c18.518-7.578,31.898-25.423,32.467-46.178c0.797-29.075-22.487-52.931-51.476-52.931H137.134v-15.706
			c0-9.222-7.477-16.699-16.699-16.699H16.699C7.477,252.218,0,259.695,0,268.917v213.755c0,9.222,7.477,16.699,16.699,16.699
			h103.737c9.222,0,16.699-7.477,16.699-16.699v-27.328l32.695,27.43c9.006,7.557,20.442,11.718,32.199,11.718h156.499
			c11.758,0,23.194-4.162,32.201-11.719L493.3,396.711C514.768,378.695,518.272,346.441,501.108,324.808z M103.737,465.972H33.398
			V285.615h70.339C103.737,296.354,103.737,458.287,103.737,465.972z M471.83,371.125l-102.571,86.063
			c-3.002,2.519-6.814,3.906-10.734,3.906H202.027c-3.919,0-7.73-1.387-10.733-3.906l-54.161-45.44v-93.727h155.286
			c10.134,0,18.373,8.324,18.092,18.619c-0.266,9.692-8.706,17.577-18.815,17.577c-7.262,0-59.115,0-65.689,0
			c-9.222,0-16.699,7.477-16.699,16.699s7.477,16.699,16.699,16.699h29.59l25.868,21.703c6.005,5.037,13.628,7.813,21.467,7.813
			h45.607c7.838,0,15.462-2.774,21.468-7.814l79.115-66.383c7.76-6.511,19.424-5.432,25.824,2.634
			C480.972,353.162,479.575,364.628,471.83,371.125z"/>
	</g>
</g>
<g>
	<g>
		<path d="M368.08,92.437l-67.065-9.744l-29.992-60.772c-6.113-12.386-23.833-12.393-29.949,0l-29.992,60.772l-67.065,9.744
			c-13.669,1.987-19.151,18.836-9.255,28.483l48.528,47.306l-11.457,66.794c-2.336,13.613,11.995,24.034,24.229,17.604
			l59.986-31.536l59.984,31.535c12.157,6.392,26.58-3.898,24.229-17.604l-11.457-66.794l48.529-47.305
			C387.225,111.279,381.757,94.424,368.08,92.437z M301.626,207.317c-54.351-28.574-36.583-28.69-91.155,0
			c10.384-60.549,15.947-43.691-28.169-86.694c60.547-8.798,46.15,2.338,73.747-53.579c27.188,55.09,12.78,44.721,73.745,53.579
			C285.814,163.494,291.21,146.586,301.626,207.317z"/>
	</g>
</g>
</svg>