<?xml version="1.0" encoding="iso-8859-1"?>
<!-- Uploaded to: SVG Repo, www.svgrepo.com, Generator: SVG Repo Mixer Tools -->
<svg fill="#000000" height="800px" width="800px" version="1.1" id="Layer_1" xmlns="http://www.w3.org/2000/svg" xmlns:xlink="http://www.w3.org/1999/xlink" 
	 viewBox="0 0 512 512" xml:space="preserve">
<g>
	<g>
		<path d="M490.667,277.333c11.782,0,21.333-9.551,21.333-21.333s-9.551-21.333-21.333-21.333h-22.392
			c-1.558-15.696-4.825-30.887-9.598-45.394l20.433-9.076c10.768-4.783,15.619-17.389,10.836-28.157s-17.389-15.619-28.157-10.836
			l-20.45,9.084c-5.91-10.34-12.662-20.135-20.159-29.297l15.84-15.84c8.331-8.331,8.331-21.839,0-30.17s-21.839-8.331-30.17,0
			l-15.84,15.84c-11.95-9.779-24.98-18.283-38.885-25.313l8.028-20.874c4.229-10.997-1.257-23.34-12.254-27.569
			c-10.997-4.229-23.34,1.257-27.569,12.254l-8.027,20.872c-11.311-3.087-22.992-5.275-34.969-6.464V21.333
			C277.333,9.551,267.782,0,256,0s-21.333,9.551-21.333,21.333v22.392c-15.699,1.558-30.893,4.826-45.403,9.601l-9.074-20.427
			c-4.783-10.768-17.389-15.619-28.157-10.836s-15.619,17.389-10.836,28.157l9.082,20.446
			c-10.337,5.909-20.129,12.659-29.289,20.155l-15.84-15.84c-8.331-8.331-21.839-8.331-30.17,0s-8.331,21.839,0,30.17l15.84,15.84
			c-9.779,11.95-18.283,24.98-25.313,38.885l-20.874-8.028c-10.997-4.229-23.34,1.257-27.569,12.254s1.257,23.34,12.254,27.569
			l20.872,8.027c-3.087,11.311-5.275,22.992-6.464,34.969H21.333C9.551,234.667,0,244.218,0,256s9.551,21.333,21.333,21.333h22.392
			c1.558,15.699,4.826,30.893,9.601,45.403l-20.427,9.074c-10.768,4.783-15.619,17.389-10.836,28.157s17.389,15.619,28.157,10.836
			l20.446-9.082c5.909,10.337,12.659,20.129,20.155,29.289l-15.836,15.836c-8.331,8.331-8.331,21.839,0,30.17s21.839,8.331,30.17,0
			l15.836-15.836c11.95,9.779,24.981,18.284,38.887,25.314l-8.03,20.88c-4.229,10.997,1.257,23.34,12.254,27.569
			s23.34-1.257,27.569-12.254l8.029-20.878c11.31,3.086,22.991,5.275,34.967,6.464v22.392c0,11.782,9.551,21.333,21.333,21.333
			s21.333-9.551,21.333-21.333v-22.392c15.696-1.558,30.887-4.825,45.394-9.598l9.076,20.433
			c4.783,10.768,17.389,15.619,28.157,10.836c10.768-4.783,15.619-17.389,10.836-28.157l-9.084-20.45
			c10.34-5.91,20.135-12.662,29.297-20.159l15.836,15.836c8.331,8.331,21.839,8.331,30.17,0s8.331-21.839,0-30.17L421.18,391.01
			c9.779-11.951,18.284-24.981,25.314-38.887l20.88,8.03c10.997,4.229,23.34-1.257,27.569-12.254
			c4.229-10.997-1.257-23.34-12.254-27.569l-20.878-8.029c3.086-11.31,5.275-22.991,6.464-34.967H490.667z M376.725,376.641
			c-0.014,0.014-0.03,0.026-0.044,0.04s-0.026,0.03-0.04,0.044c-2.886,2.884-5.874,5.666-8.96,8.338l-48.105-72.157
			c13.524-15.1,21.758-35.037,21.758-56.905c0-2.201-0.11-4.376-0.274-6.535l82.099-28.051c2.298,11.169,3.508,22.736,3.508,34.586
			c0,21.19-3.872,41.472-10.928,60.192c-0.158,0.352-0.308,0.71-0.448,1.074c-0.155,0.404-0.294,0.811-0.423,1.218
			C406.216,340.466,393.136,360.218,376.725,376.641z M326.083,411.66c-0.255,0.102-0.513,0.183-0.766,0.295
			c-0.202,0.09-0.387,0.201-0.584,0.296c-21.029,9.263-44.277,14.416-68.733,14.416c-21.19,0-41.472-3.872-60.192-10.928
			c-0.352-0.158-0.71-0.308-1.074-0.448c-0.404-0.155-0.811-0.294-1.218-0.423c-4.825-1.899-9.538-4.019-14.136-6.333l48.309-72.03
			c8.861,3.116,18.384,4.829,28.311,4.829c9.842,0,19.285-1.686,28.081-4.751l48.11,72.165
			C330.176,409.755,328.143,410.732,326.083,411.66z M135.36,376.725c-0.014-0.014-0.026-0.03-0.04-0.045s-0.03-0.026-0.045-0.04
			c-14.468-14.478-26.347-31.542-34.885-50.441c-0.115-0.292-0.209-0.586-0.337-0.875c-0.102-0.231-0.229-0.443-0.338-0.668
			C90.474,303.647,85.333,280.426,85.333,256c0-10.563,0.967-20.9,2.803-30.932l82.663,26.253c-0.084,1.549-0.133,3.108-0.133,4.679
			c0,21.781,8.171,41.644,21.599,56.721l-48.305,72.023C141.003,382.169,138.133,379.496,135.36,376.725z M185.801,100.39
			c0.292-0.115,0.586-0.209,0.875-0.337c0.231-0.102,0.443-0.229,0.668-0.338c14.794-6.508,30.684-10.983,47.322-13.057v86.697
			c-21.38,5.502-39.5,19.093-50.947,37.303L101.043,184.4C118.251,147.217,148.436,117.27,185.801,100.39z M316.124,96.235
			c0.374,0.169,0.754,0.331,1.143,0.481c0.431,0.166,0.864,0.311,1.298,0.447c39.718,15.655,72.141,45.78,90.795,83.877
			l-82.087,28.047c-11.489-17.42-29.178-30.389-49.939-35.732V86.658C290.817,88.339,303.807,91.599,316.124,96.235z
			 M279.667,291.502c-0.001,0.001-0.002,0.002-0.003,0.003c-6.772,4.522-14.908,7.162-23.664,7.162
			c-8.784,0-16.945-2.656-23.729-7.204c-0.014-0.009-0.026-0.02-0.04-0.03c-0.03-0.02-0.062-0.036-0.093-0.056
			c-11.346-7.667-18.804-20.65-18.804-35.377c0-4.384,0.663-8.612,1.891-12.593c0.036-0.109,0.077-0.215,0.112-0.325
			c0.017-0.053,0.03-0.105,0.046-0.158c5.521-17.168,21.613-29.591,40.618-29.591c18.658,0,34.506,11.976,40.302,28.658
			c0.022,0.066,0.04,0.133,0.063,0.2c0.018,0.052,0.039,0.102,0.057,0.154c1.448,4.288,2.245,8.877,2.245,13.654
			c0,14.807-7.542,27.846-18.992,35.497C279.672,291.499,279.67,291.5,279.667,291.502z"/>
	</g>
</g>
</svg>